<?xml version="1.0" standalone="no"?>
<!DOCTYPE svg PUBLIC "-//W3C//DTD SVG 20010904//EN" "http://www.w3.org/TR/2001/REC-SVG-20010904/DTD/svg10.dtd">
<svg version="1.0" xmlns="http://www.w3.org/2000/svg" width="300.000000pt" height="300.000000pt"
    viewBox="0 0 300.000000 300.000000" preserveAspectRatio="xMidYMid meet">
    <g transform="translate(0.000000,300.000000) scale(0.100000,-0.100000)" fill="#000000" stroke="none">
        <path d="M495 2991 c-42 -18 -60 -50 -65 -120 l-5 -66 -52 -5 c-176 -18 -157
-270 21 -270 l36 0 0 -95 0 -95 -32 0 c-51 0 -114 -36 -133 -77 -43 -90 12
-185 115 -199 l51 -7 -3 -91 -3 -91 -45 -5 c-58 -7 -86 -24 -110 -63 -55 -89
5 -201 111 -209 l44 -3 0 -95 0 -95 -44 -3 c-106 -8 -166 -120 -111 -209 24
-39 52 -56 110 -63 l45 -5 3 -91 3 -91 -51 -7 c-103 -14 -158 -109 -115 -199
19 -41 82 -77 133 -77 l32 0 0 -95 0 -95 -36 0 c-134 0 -194 -155 -94 -245 13
-12 42 -22 73 -25 l52 -5 5 -67 c4 -57 9 -72 33 -95 l27 -28 1090 -3 c1205 -3
1131 -6 1164 62 15 31 16 159 16 1436 0 1277 -1 1405 -16 1436 -32 68 39 64
-1151 63 -593 0 -1087 -4 -1098 -8z m2170 -1491 l0 -1405 -1069 -3 c-849 -2
-1071 0 -1078 10 -9 15 -11 2768 -2 2792 6 15 107 16 1078 14 l1071 -3 0
-1405z m-2237 1168 l3 -48 -33 0 c-41 0 -58 15 -58 52 0 31 23 49 60 45 22 -2
25 -7 28 -49z m2 -468 c0 -50 0 -50 -33 -50 -40 0 -57 15 -57 50 0 35 17 50
57 50 33 0 33 0 33 -50z m0 -465 c0 -51 -15 -64 -59 -49 -18 7 -27 18 -29 37
-5 38 14 57 54 57 34 0 34 -1 34 -45z m-2 -467 l3 -48 -33 0 c-41 0 -58 15
-58 52 0 31 23 49 60 45 22 -2 25 -7 28 -49z m2 -468 c0 -50 0 -50 -33 -50
-40 0 -57 15 -57 50 0 35 17 50 57 50 33 0 33 0 33 -50z m0 -465 c0 -51 -15
-64 -59 -49 -18 7 -27 18 -29 37 -5 38 14 57 54 57 34 0 34 -1 34 -45z" />
        <path d="M1483 2536 c-26 -23 -28 -30 -27 -93 l2 -68 -72 -22 c-235 -73 -424
-298 -452 -537 -5 -44 -11 -56 -24 -56 -39 0 -78 -22 -90 -51 -17 -40 -8 -133
15 -159 18 -20 29 -20 757 -20 860 0 778 -12 778 113 0 84 -13 104 -73 114
-34 5 -37 8 -43 52 -20 141 -99 296 -200 392 -78 75 -203 145 -291 164 l-33 7
0 67 c0 61 -3 70 -28 94 -26 25 -35 27 -109 27 -72 0 -85 -3 -110 -24z m160
-63 c2 -5 2 -25 0 -45 l-5 -38 -49 0 -49 0 0 38 c0 21 3 42 7 45 9 9 91 9 96
0z m136 -206 c184 -65 324 -214 372 -400 32 -120 83 -107 -420 -107 -415 0
-440 -1 -462 -19 -21 -16 -22 -22 -11 -45 l12 -26 505 0 505 0 0 -30 0 -30
-687 2 -688 3 -3 28 -3 27 103 0 c111 0 128 6 128 47 0 27 -32 43 -84 43 l-33
0 9 55 c35 223 220 420 442 471 91 21 225 13 315 -19z" />
        <path d="M820 1180 c-8 -14 -8 -26 0 -40 11 -20 19 -20 772 -18 712 3 762 4
772 21 8 12 8 22 0 35 -10 16 -60 17 -772 20 -753 2 -761 2 -772 -18z" />
        <path d="M887 1007 c-16 -11 -17 -32 -15 -192 l3 -180 25 0 25 0 3 118 c1 64
6 117 10 117 4 0 20 -25 35 -55 35 -72 54 -72 93 -2 l29 52 5 -109 c5 -114 16
-138 54 -123 14 6 16 29 16 186 0 162 -2 181 -17 189 -31 16 -57 -4 -93 -72
-19 -36 -38 -66 -41 -66 -3 0 -21 28 -40 61 -40 73 -67 95 -92 76z" />
        <path d="M1308 1009 c-16 -9 -18 -29 -18 -183 0 -136 3 -176 14 -185 9 -8 50
-11 117 -9 103 3 104 3 104 28 0 24 -2 25 -82 28 l-83 3 0 54 0 55 51 0 c47 0
50 2 47 23 -3 19 -10 22 -50 25 l-48 3 0 55 0 54 85 0 c83 0 85 1 85 24 0 13
-7 27 -16 30 -26 10 -188 6 -206 -5z" />
        <path d="M1647 1008 c-15 -8 -17 -30 -17 -187 0 -157 2 -180 16 -185 9 -4 25
-4 35 -1 17 6 19 18 19 113 0 61 4 102 9 96 5 -5 30 -51 57 -103 51 -97 80
-125 109 -101 12 10 15 42 15 186 0 150 -2 174 -16 182 -9 5 -25 7 -35 5 -17
-5 -19 -17 -19 -117 l0 -111 -59 109 c-59 110 -82 132 -114 114z" />
        <path d="M2028 1013 c-16 -4 -18 -20 -18 -155 0 -124 3 -155 17 -179 34 -57
151 -66 202 -15 26 26 26 29 29 185 3 149 2 159 -16 163 -10 3 -27 1 -36 -4
-14 -8 -16 -29 -16 -144 0 -74 -5 -144 -10 -155 -12 -22 -68 -27 -88 -7 -8 8
-12 57 -12 155 0 126 -2 143 -17 151 -10 5 -26 7 -35 5z" />
        <path d="M820 501 c-13 -25 -13 -27 6 -45 14 -14 76 -16 538 -16 565 0 552 -1
544 52 l-3 23 -537 3 c-523 2 -537 2 -548 -17z" />
        <path d="M2042 503 c-6 -11 -6 -28 -1 -41 8 -22 10 -22 160 -20 132 3 153 5
163 20 8 13 8 23 0 35 -10 16 -31 18 -162 21 -136 2 -152 1 -160 -15z" />
    </g>
</svg>