<?xml version="1.0" standalone="no"?>
<!DOCTYPE svg PUBLIC "-//W3C//DTD SVG 20010904//EN" "http://www.w3.org/TR/2001/REC-SVG-20010904/DTD/svg10.dtd">
<svg version="1.0" xmlns="http://www.w3.org/2000/svg" width="300.000000pt" height="300.000000pt"
    viewBox="0 0 300.000000 300.000000" preserveAspectRatio="xMidYMid meet">

    <g transform="translate(0.000000,300.000000) scale(0.100000,-0.100000)" fill="#000000" stroke="none">
        <path d="M814 2759 c-204 -203 -204 -203 -204 -414 l0 -162 -42 -14 c-63 -20
-147 -79 -202 -140 -57 -63 -115 -179 -123 -249 -4 -33 -13 -56 -29 -71 -22
-21 -24 -30 -24 -131 0 -106 1 -109 25 -120 19 -8 25 -19 25 -42 0 -17 20
-317 45 -666 39 -561 46 -636 61 -647 14 -10 105 -13 400 -13 349 0 384 2 403
17 20 17 23 48 66 677 l46 659 24 19 c24 18 25 25 25 118 0 88 -2 101 -23 127
-13 15 -29 54 -35 87 -32 161 -164 317 -317 374 l-45 16 0 116 0 115 140 140
c98 98 140 147 140 163 0 26 -142 175 -178 186 -21 7 -43 -11 -178 -145z m236
-39 c0 -4 -44 -50 -97 -103 l-98 -96 -23 46 -24 46 88 88 88 89 33 -32 c18
-18 33 -35 33 -38z m-290 -227 c0 -7 -11 -13 -25 -13 -27 0 -31 10 -14 42 11
21 12 21 25 3 8 -10 14 -25 14 -32z m38 -195 l-3 -93 -47 -3 -48 -3 0 95 0 96
50 0 51 0 -3 -92z m-3 -378 l0 -185 -45 0 -45 0 -3 188 -2 188 47 -3 48 -3 0
-185z m-187 -12 l-3 -173 -135 0 -135 0 3 35 c4 47 51 147 93 195 36 41 143
115 166 115 11 0 13 -32 11 -172z m372 130 c96 -63 170 -176 182 -278 l3 -25
-137 -3 -138 -3 0 176 c0 142 3 175 14 175 7 0 42 -19 76 -42z m240 -443 l0
-45 -470 0 -470 0 0 45 0 45 470 0 470 0 0 -45z m-54 -167 c-3 -13 -6 -46 -6
-73 l0 -50 -395 -134 c-218 -74 -398 -132 -400 -129 -3 3 -9 65 -15 139 -5 74
-12 164 -15 202 l-6 67 422 0 421 0 -6 -22z m-19 -285 c-4 -32 -9 -106 -13
-165 l-7 -106 -366 -125 c-356 -121 -366 -123 -372 -102 -4 12 -10 83 -14 157
l-7 135 384 131 c210 72 387 131 392 131 5 1 6 -25 3 -56z m-27 -385 c0 -7 -9
-134 -20 -283 -11 -148 -20 -273 -20 -277 0 -5 -148 -8 -329 -8 l-329 0 -6 32
c-3 18 -8 94 -12 169 l-7 136 354 120 c195 66 357 121 362 122 4 0 7 -5 7 -11z" />
        <path d="M500 367 c-31 -16 -39 -56 -14 -74 23 -16 136 -17 152 -1 7 7 12 25
12 40 0 21 -6 31 -26 38 -35 14 -94 12 -124 -3z" />
        <path d="M780 367 c-30 -15 -37 -48 -15 -71 13 -13 38 -16 125 -16 117 0 144
10 138 53 -5 33 -45 47 -138 47 -48 0 -96 -6 -110 -13z" />
        <path d="M2037 2898 c-15 -12 -17 -43 -19 -283 l-3 -270 -174 -3 c-96 -1 -180
-7 -186 -12 -6 -5 -20 -46 -30 -90 -18 -80 -18 -80 -51 -80 -17 0 -41 -8 -53
-17 -20 -17 -22 -26 -19 -133 3 -113 3 -115 30 -128 34 -16 26 56 93 -887 63
-886 62 -870 81 -890 13 -13 78 -15 462 -15 246 0 457 3 469 6 12 3 25 13 28
22 4 10 29 406 57 882 46 788 52 867 69 886 16 17 19 37 19 131 0 88 -3 115
-16 127 -8 9 -21 16 -28 16 -7 0 -18 24 -26 58 -6 31 -18 72 -26 90 l-13 32
-200 0 -201 0 0 265 c0 325 10 305 -143 305 -67 0 -109 -4 -120 -12z m163
-323 l0 -235 -45 0 -45 0 0 235 0 235 45 0 45 0 0 -235z m447 -370 l10 -45
-477 0 -477 0 10 45 10 45 457 0 457 0 10 -45z m73 -190 l0 -45 -565 0 -565 0
0 45 0 45 565 0 565 0 0 -45z m-702 -151 c-3 -3 -82 -48 -175 -99 l-168 -94
-7 42 c-3 23 -7 68 -7 100 l-1 57 182 0 c100 0 179 -3 176 -6z m587 -2 c-18
-16 -905 -505 -909 -501 -2 2 -7 49 -11 105 l-7 100 273 152 274 152 195 0
c107 0 190 -4 185 -8z m58 -256 l-8 -46 -465 -259 c-256 -142 -468 -256 -471
-252 -4 3 -9 50 -10 105 l-4 98 480 267 480 267 3 -67 c2 -37 -1 -88 -5 -113z
m-18 -322 l-6 -62 -445 -247 c-245 -136 -448 -245 -450 -242 -11 11 -19 199
-10 205 6 4 213 120 461 258 l450 251 3 -51 c2 -28 1 -79 -3 -112z m-20 -340
l-6 -61 -426 -236 c-235 -131 -428 -236 -430 -234 -1 2 -4 50 -5 107 l-3 104
435 242 435 242 3 -51 c2 -29 1 -79 -3 -113z m-20 -339 l-6 -61 -319 -177
-319 -177 -89 0 -89 0 -7 31 c-17 84 -46 62 412 316 l417 231 3 -51 c2 -29 1
-79 -3 -112z m-20 -342 l-7 -73 -211 0 -212 0 215 120 215 119 3 -47 c2 -26 1
-80 -3 -119z" />
    </g>
</svg>