<?xml version="1.0" standalone="no"?>
<!DOCTYPE svg PUBLIC "-//W3C//DTD SVG 20010904//EN" "http://www.w3.org/TR/2001/REC-SVG-20010904/DTD/svg10.dtd">
<svg version="1.0" xmlns="http://www.w3.org/2000/svg" width="300.000000pt" height="300.000000pt"
        viewBox="0 0 300.000000 300.000000" preserveAspectRatio="xMidYMid meet">
        <g transform="translate(0.000000,300.000000) scale(0.100000,-0.100000)" fill="#000000" stroke="none">
                <path d="M1320 2872 c-8 -3 -78 -41 -155 -85 -237 -135 -257 -164 -263 -389
l-4 -148 -218 0 c-176 0 -221 -3 -233 -14 -8 -8 -25 -51 -37 -95 l-24 -81 -43
0 c-32 0 -45 -5 -53 -19 -5 -11 -10 -76 -10 -144 0 -132 3 -142 50 -149 l25
-3 2 -230 c3 -216 4 -231 23 -247 18 -15 22 -49 50 -402 16 -212 30 -399 30
-416 l0 -29 -152 -3 -153 -3 -9 -27 c-15 -43 16 -128 65 -176 76 -77 -6 -73
1305 -70 l1171 3 49 30 c59 37 104 106 111 170 8 63 -5 75 -83 75 l-64 0 0 33
c0 17 23 230 50 471 50 446 51 476 14 476 -9 0 -14 4 -12 8 2 5 30 73 62 151
44 106 57 147 50 160 -12 19 -210 119 -239 120 -12 1 -26 -4 -33 -11 -9 -9
-12 -1 -12 38 0 74 -15 84 -128 84 l-92 0 0 39 c0 65 -13 71 -155 71 -142 0
-155 -6 -155 -71 l0 -39 -94 0 c-113 0 -126 -8 -126 -79 l0 -48 -90 -42 c-49
-23 -94 -50 -100 -61 -8 -16 -2 -41 31 -121 22 -55 39 -103 36 -105 -3 -3 -22
-1 -44 5 -21 6 -84 11 -139 11 l-102 0 5 108 c5 126 7 132 31 132 37 0 42 20
42 156 0 146 -2 151 -64 156 l-39 3 -22 84 c-12 46 -29 87 -36 92 -8 5 -38 9
-66 9 l-53 0 0 114 0 114 130 77 c76 45 132 85 136 97 4 14 -12 47 -57 114
-64 97 -82 115 -109 106z m28 -147 c12 -19 22 -38 22 -42 0 -8 -144 -95 -166
-101 -10 -3 -49 86 -41 94 10 10 144 84 152 84 6 0 20 -16 33 -35z m-255 -139
c12 -35 8 -38 -44 -34 l-42 3 28 33 c32 38 45 37 58 -2z m27 -236 l0 -100 -60
0 -60 0 0 100 0 100 60 0 60 0 0 -100z m159 -212 c4 -13 11 -35 15 -50 l6 -28
-405 0 c-295 0 -405 3 -405 11 0 7 5 29 12 50 l11 39 379 0 378 0 9 -22z m131
-233 l0 -65 -515 0 -515 0 0 65 0 65 515 0 515 0 0 -65z m858 -277 l-3 -333
-60 0 -60 0 -3 333 -2 332 65 0 65 0 -2 -332z m-220 -1 l2 -228 -62 3 -63 3
-3 215 c-1 118 0 220 3 228 3 9 22 12 62 10 l58 -3 3 -228z m440 5 l2 -222
-24 -10 c-16 -6 -35 -29 -51 -60 -45 -89 -50 -70 -53 226 -1 148 0 275 3 282
3 9 22 12 62 10 l58 -3 3 -223z m-1308 113 c0 -5 -715 -365 -725 -365 -8 0 -6
356 2 363 7 8 723 10 723 2z m1573 -64 c4 -4 -18 -69 -49 -144 l-57 -137 -33
0 -34 0 0 80 c0 65 5 93 31 157 17 43 33 81 35 85 4 6 91 -27 107 -41z m-923
-88 l-1 -128 -44 104 c-25 58 -44 106 -42 107 3 2 82 43 85 44 1 0 2 -57 2
-127z m-494 80 c-3 -21 -6 -68 -6 -104 l0 -66 -47 -18 c-156 -58 -264 -176
-309 -340 -18 -64 -18 -130 0 -147 22 -23 24 -165 4 -204 -34 -64 -12 -261 38
-336 l24 -38 -239 0 -240 0 -5 42 c-3 24 -17 196 -31 383 -14 187 -27 363 -31
392 l-5 52 418 210 c230 115 422 210 427 210 5 1 6 -16 2 -36z m309 -269 c138
-35 238 -134 279 -271 l15 -53 -441 0 -441 0 6 36 c20 125 143 252 279 288 72
20 229 20 303 0z m411 -135 c31 -70 27 -69 214 -69 187 0 183 -1 214 69 l19
41 99 0 98 0 -5 -37 c-5 -33 -95 -839 -95 -849 0 -2 -144 -4 -320 -4 -176 0
-320 2 -320 4 0 3 10 21 22 41 49 84 67 289 29 337 -16 20 -18 31 -10 73 5 27
6 63 3 81 -4 23 -2 33 10 37 36 14 8 191 -44 275 -11 18 -20 35 -20 37 0 3 20
5 43 5 42 0 45 -2 63 -41z m-148 -347 l3 -52 -44 -19 c-67 -29 -87 -61 -87
-140 0 -87 -15 -115 -62 -119 -51 -4 -68 23 -68 108 0 48 -5 74 -20 98 -35 56
-63 62 -314 62 -245 0 -236 -2 -236 60 0 64 -28 60 419 58 l406 -3 3 -53z
m-352 -186 c3 -14 3 -30 -1 -35 -4 -7 -86 -11 -240 -11 -199 0 -236 2 -249 16
-18 18 -18 17 -10 38 5 14 37 16 250 16 l244 0 6 -24z m382 -3 c4 -24 -30 -48
-54 -39 -14 6 -19 47 -7 60 16 15 58 1 61 -21z m-353 -165 c34 -53 70 -73 130
-73 60 0 96 20 130 73 16 24 27 31 53 32 30 0 32 -2 26 -27 -17 -71 -67 -124
-132 -143 -51 -14 -545 -13 -597 1 -52 14 -109 74 -122 128 l-11 41 252 0 251
-1 20 -31z m1153 -263 c-6 -14 -28 -36 -47 -48 l-36 -22 -1115 -3 c-613 -2
-1139 0 -1168 3 -39 5 -62 15 -88 37 -70 62 -153 58 1216 58 l1250 0 -12 -25z" />
                <path d="M646 1114 c-31 -30 -14 -117 24 -129 32 -10 60 20 60 64 0 66 -47
103 -84 65z" />
                <path d="M660 895 c-16 -19 -7 -200 11 -221 15 -19 53 -18 69 1 20 24 5 206
-17 223 -23 16 -48 15 -63 -3z" />
                <path d="M1296 1284 c-40 -40 7 -109 59 -86 32 15 41 47 21 77 -19 29 -57 33
-80 9z" />
                <path d="M1622 1288 c-21 -21 -14 -66 13 -84 23 -15 27 -15 50 0 17 11 25 26
25 44 0 35 -16 52 -50 52 -14 0 -31 -5 -38 -12z" />
                <path d="M1460 1230 c-25 -25 -26 -52 -2 -73 24 -22 55 -21 75 1 23 26 21 58
-5 76 -30 21 -44 20 -68 -4z" />
                <path d="M2285 1071 c-111 -27 -172 -113 -163 -227 9 -107 93 -184 201 -184
73 0 113 17 159 68 104 116 54 293 -96 337 -54 16 -57 16 -101 6z m121 -125
c29 -29 34 -41 34 -79 0 -106 -124 -157 -195 -81 -71 77 -18 194 89 194 30 0
45 -7 72 -34z" />
        </g>
</svg>