<?xml version="1.0" standalone="no"?>
<!DOCTYPE svg PUBLIC "-//W3C//DTD SVG 20010904//EN" "http://www.w3.org/TR/2001/REC-SVG-20010904/DTD/svg10.dtd">
<svg version="1.0" xmlns="http://www.w3.org/2000/svg" width="300.000000pt" height="300.000000pt"
    viewBox="0 0 300.000000 300.000000" preserveAspectRatio="xMidYMid meet">
    <g transform="translate(0.000000,300.000000) scale(0.100000,-0.100000)" fill="#000000" stroke="none">
        <path d="M1055 2789 c-110 -8 -261 -47 -359 -93 -84 -38 -103 -61 -80 -94 18
-26 35 -27 74 -7 32 17 31 18 59 -52 l20 -52 -54 -31 c-31 -17 -78 -49 -105
-71 -27 -21 -53 -39 -58 -39 -4 0 -27 19 -50 43 l-42 43 30 29 c44 42 36 85
-16 85 -54 0 -233 -205 -311 -355 -71 -138 -123 -318 -123 -424 0 -45 30 -95
72 -121 32 -19 52 -20 512 -20 l479 0 -45 -48 c-25 -27 -62 -71 -82 -99 -35
-49 -37 -50 -97 -56 -53 -5 -65 -2 -96 19 -76 52 -159 53 -236 4 -37 -23 -51
-27 -95 -22 -100 9 -196 -55 -223 -150 -9 -29 -27 -56 -56 -81 -26 -24 -47
-53 -54 -78 -10 -31 -17 -39 -36 -39 -14 0 -38 -13 -54 -29 -35 -36 -37 -67
-9 -175 27 -105 83 -208 157 -286 l61 -66 4 -131 c4 -189 10 -193 278 -193
175 0 210 8 210 49 0 36 -23 40 -211 43 l-184 3 -3 83 c-2 45 -1 82 1 82 3 0
29 -11 58 -25 86 -39 165 -55 269 -55 106 0 187 16 273 54 l57 26 0 -85 0 -85
-59 0 c-64 0 -85 -13 -79 -52 7 -51 148 -50 200 2 28 28 28 29 28 156 l0 127
63 66 c34 36 77 94 95 129 l33 62 471 2 471 3 14 22 c13 19 12 24 -6 42 -21
21 -29 21 -470 21 l-449 0 9 38 c17 73 11 111 -20 143 -16 16 -39 29 -50 29
-14 0 -26 13 -40 43 -11 23 -26 49 -32 58 -24 32 105 200 220 287 79 61 208
123 306 148 85 21 263 24 350 5 342 -74 597 -347 643 -689 l9 -62 -157 0
c-139 0 -159 -2 -173 -18 -21 -23 -21 -36 -1 -56 13 -14 52 -16 267 -16 277 0
298 4 341 63 43 59 15 246 -63 427 -107 249 -326 470 -569 576 -42 18 -80 41
-84 51 -3 10 -18 59 -33 108 -70 236 -236 459 -444 599 -148 99 -346 171 -501
182 -41 2 -88 6 -105 7 -16 2 -71 0 -120 -4z m55 -149 l0 -70 -34 0 c-38 0
-157 -23 -197 -39 -25 -9 -27 -7 -47 43 -12 28 -22 57 -22 63 0 19 118 50 255
66 17 2 33 5 38 6 4 0 7 -30 7 -69z m225 49 c90 -13 165 -38 165 -53 0 -7 -9
-36 -21 -63 l-21 -50 -60 18 c-33 11 -91 22 -129 25 l-69 7 0 68 0 68 38 -5
c20 -3 64 -9 97 -15z m403 -161 c24 -17 59 -44 78 -61 l35 -30 -43 -44 c-48
-49 -57 -51 -84 -22 -10 12 -56 44 -101 71 l-82 50 20 51 c11 28 22 55 25 59
6 9 91 -32 152 -74z m-361 -74 c215 -62 397 -210 497 -403 25 -49 46 -93 46
-98 0 -4 -35 -9 -78 -11 -207 -7 -413 -73 -581 -186 l-53 -36 -434 0 -434 0 6
43 c28 195 98 341 228 475 208 216 516 299 803 216z m-897 -180 c0 -6 -9 -19
-21 -30 -12 -10 -44 -56 -72 -101 -27 -46 -52 -83 -53 -83 -13 0 -114 51 -114
57 1 15 95 162 134 209 l38 46 44 -43 c24 -24 44 -48 44 -55z m1561 -68 c27
-44 49 -85 49 -91 0 -5 -26 -21 -57 -33 -54 -22 -59 -23 -68 -7 -14 24 -101
155 -121 183 -17 22 -16 24 27 68 l44 45 38 -43 c22 -23 61 -79 88 -122z
m-1790 -207 c27 -12 49 -26 49 -31 0 -6 -7 -34 -16 -63 -8 -30 -18 -82 -22
-117 l-7 -63 -42 -3 c-62 -5 -83 10 -83 58 0 74 43 240 61 240 6 0 33 -10 60
-21z m1896 -33 c8 -26 13 -49 11 -51 -5 -4 -111 16 -128 25 -31 15 -21 37 27
58 26 11 54 20 62 19 8 -1 20 -24 28 -51z m-307 -176 l0 -70 -37 0 c-32 0 -80
-9 -201 -37 -19 -5 -25 2 -47 51 -14 31 -25 58 -25 60 0 8 167 48 229 56 36 4
69 8 74 9 4 0 7 -30 7 -69z m225 49 c83 -12 165 -38 165 -50 0 -6 -10 -33 -22
-61 -19 -45 -24 -49 -47 -44 -129 29 -161 35 -193 36 l-38 0 0 69 0 70 38 -5
c20 -3 64 -9 97 -15z m-590 -142 l24 -57 -32 -16 c-18 -9 -67 -41 -109 -70
-43 -30 -81 -54 -86 -54 -10 0 -82 78 -82 88 1 19 235 174 254 169 4 -2 19
-28 31 -60z m975 -10 c25 -17 64 -46 88 -65 l44 -35 -43 -43 c-24 -24 -47 -44
-52 -44 -5 0 -27 15 -50 34 -23 19 -70 50 -104 70 -35 21 -63 39 -63 41 0 3
11 29 25 60 l24 56 43 -22 c24 -12 63 -35 88 -52z m-1258 -284 c-12 -16 -38
-52 -58 -82 l-37 -54 -14 34 c-8 19 -26 46 -40 61 l-25 27 22 33 c13 18 37 48
54 66 l30 32 45 -45 45 -45 -22 -27z m1512 48 c24 -31 61 -88 81 -124 l37 -67
-56 -25 c-31 -14 -58 -25 -61 -25 -2 0 -20 28 -41 63 -20 34 -51 81 -70 104
-19 23 -34 45 -34 49 0 14 83 93 91 88 5 -3 29 -31 53 -63z m-1953 -97 c32
-31 42 -36 66 -29 74 18 107 17 143 -7 41 -28 53 -68 20 -68 -11 0 -37 -7 -56
-15 -32 -13 -39 -13 -64 0 -38 19 -133 19 -170 0 -27 -14 -33 -14 -60 0 -16 8
-54 15 -85 15 -31 0 -69 -7 -85 -15 -27 -14 -33 -14 -60 0 -16 8 -40 15 -55
15 -42 0 -25 49 27 76 30 15 65 15 131 -1 23 -6 34 -2 60 22 47 45 68 54 111
49 27 -3 50 -15 77 -42z m-373 -211 c47 -24 56 -25 75 -13 73 46 113 48 169 9
33 -24 49 -24 79 0 49 38 109 34 171 -11 14 -10 27 -7 73 16 51 26 59 28 95
17 35 -10 80 -51 80 -72 0 -5 -207 -9 -460 -9 -253 0 -460 3 -460 8 0 18 35
55 64 68 44 19 54 18 114 -13z m2497 -25 c19 -68 35 -153 35 -189 0 -41 -24
-59 -81 -59 l-49 0 0 38 c0 20 -9 74 -20 120 -11 46 -20 87 -20 91 0 9 87 50
107 51 7 0 19 -24 28 -52z m-1645 -150 c0 -41 -29 -131 -61 -195 -111 -219
-358 -342 -603 -300 -100 18 -207 67 -279 128 -95 81 -174 223 -192 342 l-7
47 571 0 571 0 0 -22z" />
    </g>
</svg>