<?xml version="1.0" standalone="no"?>
<!DOCTYPE svg PUBLIC "-//W3C//DTD SVG 20010904//EN" "http://www.w3.org/TR/2001/REC-SVG-20010904/DTD/svg10.dtd">
<svg version="1.0" xmlns="http://www.w3.org/2000/svg" width="300.000000pt" height="300.000000pt"
    viewBox="0 0 300.000000 300.000000" preserveAspectRatio="xMidYMid meet">

    <g transform="translate(0.000000,300.000000) scale(0.100000,-0.100000)" fill="#000000" stroke="none">
        <path d="M920 2674 c-474 -86 -826 -446 -906 -924 -26 -160 -13 -238 45 -270
30 -15 30 -94 0 -112 -11 -7 -29 -28 -41 -46 -24 -38 -21 -102 6 -131 15 -17
15 -22 -4 -62 -28 -62 -28 -183 1 -248 l20 -48 -20 -34 c-19 -31 -21 -50 -21
-209 0 -196 7 -220 72 -260 33 -20 54 -20 1428 -20 1374 0 1395 0 1428 20 65
40 72 64 72 260 0 159 -2 178 -21 209 l-20 34 20 48 c29 65 29 186 1 248 -19
40 -19 45 -4 62 27 29 30 93 6 131 -12 18 -30 39 -41 46 -30 18 -30 97 0 112
58 32 71 110 45 270 -70 422 -365 767 -761 889 -151 47 -210 51 -735 50 -371
-1 -514 -5 -570 -15z m1200 -101 c192 -50 350 -138 482 -268 162 -161 275
-386 293 -585 3 -36 8 -82 10 -102 10 -74 131 -68 -1405 -68 -1536 0 -1415 -6
-1405 68 2 20 7 66 10 102 12 131 74 294 160 425 140 212 379 376 625 429 111
23 115 24 655 21 461 -2 506 -3 575 -22z m710 -1148 l0 -35 -1330 0 -1330 0 0
35 0 35 1330 0 1330 0 0 -35z m-2659 -167 c7 -27 5 -28 -27 -28 -22 0 -36 6
-42 18 -15 28 -3 43 31 40 24 -2 32 -9 38 -30z m479 22 c0 -19 -27 -64 -52
-86 -70 -64 -169 -75 -246 -27 -40 24 -91 89 -92 116 0 4 88 7 195 7 129 0
195 -4 195 -10z m510 3 c0 -5 -10 -25 -23 -45 -86 -141 -282 -133 -358 15
l-19 37 200 0 c110 0 200 -3 200 -7z m491 -30 c-74 -145 -276 -156 -356 -19
-14 23 -25 46 -25 49 0 4 90 7 200 7 l200 0 -19 -37z m519 30 c0 -3 -11 -26
-25 -49 -64 -110 -216 -129 -313 -40 -25 22 -52 67 -52 86 0 6 66 10 195 10
107 0 195 -3 195 -7z m494 -25 c-56 -113 -185 -154 -289 -94 -38 23 -95 94
-95 119 0 4 90 7 200 7 l201 0 -17 -32z m239 20 c2 -7 0 -21 -5 -30 -7 -14
-22 -18 -73 -18 -36 0 -65 3 -65 8 0 4 3 17 6 30 6 20 12 22 69 22 42 0 65 -4
68 -12z m-1567 -204 c112 -55 250 -31 342 59 l42 41 43 -41 c107 -106 276
-117 393 -28 l32 25 7 -40 c25 -147 198 -190 286 -71 15 21 31 31 48 31 34 0
121 41 145 69 16 18 30 21 88 21 112 0 148 -33 148 -135 0 -66 -18 -105 -56
-121 -50 -21 -2658 -21 -2708 0 -38 16 -56 55 -56 121 0 126 89 174 184 101
74 -56 159 -73 264 -53 l42 9 0 -41 c0 -73 74 -129 146 -110 50 14 77 51 82
114 4 47 7 55 21 49 127 -54 255 -32 343 59 l43 44 33 -38 c18 -21 58 -50 88
-65z m-618 14 c-3 -75 -5 -83 -23 -83 -18 0 -20 8 -23 64 -2 49 1 68 14 82 9
11 21 19 26 19 5 0 8 -37 6 -82z m1626 -13 c34 -21 37 -25 21 -31 -23 -9 -69
15 -73 39 -5 23 5 21 52 -8z m550 -317 c13 -18 16 -53 16 -170 0 -135 -2 -150
-20 -168 -20 -20 -33 -20 -1390 -20 -1357 0 -1370 0 -1390 20 -18 18 -20 33
-20 168 0 117 3 152 16 170 l15 22 1379 0 1379 0 15 -22z" />
        <path d="M1022 2474 c-36 -25 -74 -111 -79 -179 -4 -51 -1 -65 19 -95 34 -50
93 -70 150 -50 28 10 51 27 66 50 20 30 23 44 19 95 -5 68 -43 154 -79 179
-12 9 -34 16 -48 16 -14 0 -36 -7 -48 -16z m77 -143 c16 -50 14 -79 -9 -91
-27 -15 -60 4 -60 34 0 12 7 44 16 70 18 53 32 50 53 -13z" />
        <path d="M1812 2465 c-42 -35 -76 -118 -76 -187 -1 -53 2 -61 35 -94 69 -68
167 -51 212 36 43 85 -38 270 -118 270 -13 0 -37 -11 -53 -25z m73 -112 c32
-76 -3 -157 -45 -106 -15 19 -16 30 -9 64 10 42 26 79 34 79 3 0 12 -17 20
-37z" />
        <path d="M568 2075 c-71 -39 -115 -202 -72 -273 52 -89 191 -79 231 15 28 69
-6 195 -67 246 -36 30 -53 33 -92 12z m67 -145 c19 -56 13 -86 -16 -95 -34
-11 -52 13 -45 63 6 47 22 82 36 82 4 0 16 -22 25 -50z" />
        <path d="M1433 2080 c-54 -22 -112 -171 -93 -239 18 -64 63 -101 123 -101 75
0 137 58 137 129 0 59 -33 143 -71 183 -36 38 -56 44 -96 28z m62 -153 c17
-60 13 -83 -16 -92 -45 -15 -63 42 -35 110 8 19 20 35 25 35 6 0 17 -24 26
-53z" />
        <path d="M2294 2080 c-58 -23 -113 -170 -93 -245 5 -18 25 -47 45 -64 81 -72
214 -9 214 101 0 54 -34 142 -70 179 -37 39 -57 45 -96 29z m61 -153 c17 -60
13 -83 -16 -92 -45 -15 -63 42 -35 110 8 19 20 35 25 35 6 0 17 -24 26 -53z" />
    </g>
</svg>