<?xml version="1.0" standalone="no"?>
<!DOCTYPE svg PUBLIC "-//W3C//DTD SVG 20010904//EN" "http://www.w3.org/TR/2001/REC-SVG-20010904/DTD/svg10.dtd">
<svg version="1.0" xmlns="http://www.w3.org/2000/svg" width="300.000000pt" height="300.000000pt"
    viewBox="0 0 300.000000 300.000000" preserveAspectRatio="xMidYMid meet">

    <g transform="translate(0.000000,300.000000) scale(0.100000,-0.100000)" fill="#000000" stroke="none">
        <path d="M1405 2987 c-99 -33 -198 -115 -229 -189 -13 -31 -15 -32 -70 -29
-132 6 -261 -46 -354 -143 -65 -67 -91 -112 -116 -195 -14 -48 -16 -154 -16
-931 0 -777 2 -883 16 -931 25 -83 51 -128 116 -195 93 -97 222 -149 354 -143
55 3 57 2 70 -29 23 -55 109 -137 177 -168 53 -25 75 -29 147 -29 72 0 94 4
147 29 68 31 154 113 177 168 13 31 15 32 70 29 132 -6 261 46 354 143 65 67
91 112 116 195 14 48 16 154 16 931 0 777 -2 883 -16 931 -25 83 -51 128 -116
195 -93 97 -222 149 -354 143 -55 -3 -57 -2 -70 29 -23 56 -109 137 -177 167
-73 33 -179 43 -242 22z m211 -108 c55 -26 103 -75 130 -134 l24 -50 0 -1195
0 -1195 -24 -50 c-47 -102 -135 -158 -246 -158 -111 0 -199 56 -246 158 l-24
50 0 1195 0 1195 24 50 c66 141 223 199 362 134z m-481 -1379 l0 -1175 -35 -3
c-19 -2 -60 2 -90 8 -136 30 -236 119 -279 247 -21 61 -21 77 -21 923 0 846 0
862 21 923 51 154 199 259 354 254 l50 -2 0 -1175z m870 1166 c131 -35 223
-119 264 -243 21 -61 21 -77 21 -923 0 -846 0 -862 -21 -923 -43 -128 -143
-217 -279 -247 -30 -6 -71 -10 -90 -8 l-35 3 -3 1165 c-1 641 0 1171 3 1178 6
16 76 15 140 -2z" />
        <path d="M1473 2796 c-42 -19 -114 -92 -136 -138 -10 -22 -17 -60 -17 -100 0
-86 37 -151 120 -210 33 -23 60 -47 60 -52 -1 -6 -29 -31 -63 -56 -83 -61
-116 -120 -117 -210 0 -88 37 -154 120 -213 33 -23 59 -46 59 -52 0 -5 -26
-29 -59 -52 -83 -59 -120 -125 -120 -213 0 -88 37 -154 120 -213 33 -23 59
-46 59 -52 0 -5 -26 -29 -59 -52 -83 -59 -120 -125 -120 -213 1 -90 34 -149
117 -210 34 -25 62 -50 63 -56 0 -5 -27 -29 -60 -52 -40 -28 -70 -60 -90 -95
-28 -47 -31 -59 -28 -127 3 -68 6 -80 38 -124 72 -100 164 -136 227 -90 67 50
67 120 0 185 l-42 40 27 22 c14 12 45 37 68 56 118 95 117 278 -2 374 -22 18
-52 42 -66 55 l-27 22 27 23 c14 12 45 37 68 56 26 21 52 55 67 89 51 109 15
223 -97 308 -30 23 -55 47 -55 54 0 7 25 31 55 54 112 85 148 199 97 308 -15
34 -41 68 -67 89 -23 19 -54 44 -68 57 l-27 22 27 23 c14 12 44 36 66 54 119
96 120 279 2 374 -23 19 -54 44 -68 56 l-27 22 38 35 c20 19 42 48 48 63 34
90 -67 179 -158 139z m70 -110 c-4 -6 -20 -22 -36 -35 -77 -65 -66 -129 33
-206 74 -57 100 -96 100 -151 0 -48 -39 -110 -92 -142 -62 -39 -91 -77 -91
-122 0 -46 14 -65 91 -122 126 -93 125 -188 -3 -289 -119 -93 -119 -145 0
-238 128 -101 129 -196 3 -289 -77 -57 -91 -76 -91 -122 0 -45 29 -83 91 -122
53 -32 92 -94 92 -142 0 -55 -26 -94 -100 -151 -76 -58 -97 -99 -76 -148 7
-18 26 -44 43 -58 39 -33 45 -45 29 -58 -10 -8 -23 -4 -54 19 -103 74 -97 195
14 271 125 86 129 158 12 239 -73 52 -98 90 -98 150 0 60 25 98 98 150 117 81
112 153 -15 241 -112 77 -112 201 0 278 127 88 132 160 15 241 -73 52 -98 90
-98 150 0 60 25 98 98 150 117 81 113 153 -12 239 -80 55 -108 139 -71 212 22
42 94 92 111 78 8 -6 11 -16 7 -23z" />
    </g>
</svg>