<?xml version="1.0" standalone="no"?>
<!DOCTYPE svg PUBLIC "-//W3C//DTD SVG 20010904//EN" "http://www.w3.org/TR/2001/REC-SVG-20010904/DTD/svg10.dtd">
<svg version="1.0" xmlns="http://www.w3.org/2000/svg" width="300.000000pt" height="300.000000pt"
    viewBox="0 0 300.000000 300.000000" preserveAspectRatio="xMidYMid meet">

    <g transform="translate(0.000000,300.000000) scale(0.050000,-0.050000)" fill="#000000" stroke="none">
        <path d="M3016 4693 c-14 -14 -56 -90 -94 -167 -67 -140 -68 -141 -182 -173
-164 -45 -175 -65 -131 -235 29 -113 32 -150 13 -192 -31 -67 -24 -81 -123
264 -47 165 -95 312 -107 327 -51 67 -627 -108 -645 -197 -8 -38 -30 -65 -70
-81 -71 -30 -60 -44 -124 166 -72 231 -67 230 -394 131 -374 -112 -355 -77
-239 -441 44 -138 80 -258 80 -267 0 -8 -109 99 -242 238 -194 204 -252 254
-296 254 -65 0 -462 -388 -462 -452 0 -21 103 -139 240 -275 279 -277 259
-245 165 -260 -339 -56 -346 -210 -50 -1035 290 -806 305 -832 548 -962 l87
-46 2050 0 2050 0 95 47 c112 56 244 183 294 282 51 102 461 1265 474 1345 27
169 -94 343 -259 369 l-76 12 191 195 c105 107 191 209 191 226 0 41 -348 407
-424 446 -31 16 -56 40 -56 54 -1 13 -112 99 -248 191 -293 197 -275 199 -440
-46 -83 -124 -122 -167 -139 -153 -27 22 -516 202 -550 202 -12 0 -38 -18 -58
-40 -65 -69 -430 18 -736 177 -247 128 -289 140 -333 96z m339 -301 l65 -33
-53 -105 -54 -104 -31 120 c-42 157 -52 170 -134 170 -64 0 -68 3 -47 41 22
41 22 41 105 -7 46 -27 113 -64 149 -82z m-1946 -133 c20 -77 33 -143 29 -147
-5 -4 -55 -31 -113 -60 -142 -71 -139 -100 43 -432 161 -295 162 -347 3 -175
-99 107 -106 122 -208 464 -58 195 -110 365 -115 378 -6 17 38 40 126 67 202
61 193 65 235 -95z m3887 -59 c13 -34 -397 -594 -531 -726 l-138 -136 -153 6
-153 6 198 283 c108 156 270 392 360 524 l163 242 124 -92 c68 -50 127 -98
130 -107z m-3016 112 c0 -15 44 -170 98 -345 l97 -317 -78 -155 c-42 -85 -81
-155 -85 -155 -24 0 -213 392 -248 511 -22 77 -58 196 -80 265 -29 91 -34 129
-17 135 220 80 313 98 313 61z m842 -123 c38 -157 205 -802 213 -825 8 -20
-29 -24 -166 -20 l-175 6 -107 408 c-59 225 -105 411 -102 413 12 11 287 84
304 80 11 -2 26 -30 33 -62z m758 40 c82 -17 151 -33 153 -35 2 -2 -35 -193
-82 -424 l-85 -420 -176 -6 c-138 -4 -173 0 -165 21 6 14 49 221 97 460 48
239 91 435 97 435 6 0 78 -14 161 -31z m502 -41 c70 -29 130 -54 132 -56 47
-43 -371 -792 -442 -792 -17 0 2 130 67 450 50 247 96 450 103 450 6 0 69 -23
140 -52z m-3532 -468 l380 -380 -240 0 -239 0 -266 265 -265 264 115 116 c62
63 119 115 125 115 6 0 181 -171 390 -380z m2614 205 c-34 -179 -52 -203 -73
-96 -9 53 0 94 40 172 67 133 71 123 33 -76z m-1645 -60 c55 -107 141 -269
191 -360 l92 -165 -189 0 -190 0 -94 175 c-52 96 -120 221 -152 278 l-58 103
146 82 c80 44 147 81 150 82 2 0 49 -88 104 -195z m3846 20 l115 -114 -215
-216 -214 -215 -226 0 c-124 0 -225 4 -225 8 0 9 625 643 639 648 6 2 62 -48
126 -111z m-2904 -364 c21 -90 39 -167 39 -172 0 -5 -63 -9 -140 -9 l-140 0
91 182 c50 100 96 178 101 173 5 -6 27 -84 49 -174z m-1411 -701 c187 -187
353 -340 370 -340 17 0 183 153 370 340 l340 340 1622 0 c1804 0 1728 6 1728
-131 0 -38 -306 -929 -432 -1256 -46 -122 -122 -207 -234 -262 l-102 -51
-1963 0 c-2452 0 -2175 -76 -2438 670 -74 209 -174 491 -223 626 -138 383
-121 404 322 404 l300 0 340 -340z m605 114 l-231 -226 -232 226 -232 226 463
0 464 0 -232 -226z" />
        <path d="M2864 2936 c-14 -14 -24 -80 -24 -155 l0 -131 -228 7 c-286 8 -381
-48 -270 -159 39 -39 60 -42 270 -35 l228 7 0 -235 0 -235 -476 0 c-492 0
-524 -5 -524 -83 0 -91 35 -97 531 -97 l469 0 0 -106 c0 -114 23 -154 90 -154
67 0 90 40 90 154 l0 106 620 0 620 0 0 -106 c0 -114 23 -154 90 -154 67 0 90
40 90 154 l0 106 121 0 c143 0 199 24 199 87 0 74 -38 93 -184 93 l-136 0 0
130 c0 115 -5 133 -49 161 -90 59 -131 13 -131 -152 l0 -139 -620 0 -620 0 0
235 0 235 265 -3 265 -4 6 -121 c11 -227 184 -214 184 13 l0 115 738 -6 c788
-6 803 -5 802 92 -1 95 9 94 -789 94 l-751 0 0 116 c0 267 -171 283 -184 17
l-6 -125 -265 -4 -265 -4 0 131 c0 139 -20 179 -90 179 -23 0 -53 -11 -66 -24z" />
    </g>
</svg>