<?xml version="1.0" standalone="no"?>
<!DOCTYPE svg PUBLIC "-//W3C//DTD SVG 20010904//EN" "http://www.w3.org/TR/2001/REC-SVG-20010904/DTD/svg10.dtd">
<svg version="1.0" xmlns="http://www.w3.org/2000/svg" width="300.000000pt" height="300.000000pt"
    viewBox="0 0 300.000000 300.000000" preserveAspectRatio="xMidYMid meet">

    <g transform="translate(0.000000,300.000000) scale(0.100000,-0.100000)" fill="#000000" stroke="none">
        <path d="M1404 2796 c-45 -14 -1281 -778 -1302 -804 -10 -13 -13 -59 -10 -192
3 -169 4 -178 30 -229 l28 -52 -20 -22 c-29 -31 -42 -85 -29 -129 5 -21 14
-40 19 -43 5 -3 0 -26 -11 -50 -33 -75 -3 -155 71 -185 23 -10 29 -17 23 -29
-10 -21 -10 -131 0 -152 6 -13 0 -21 -30 -35 -27 -14 -45 -33 -61 -66 -27 -55
-24 -87 14 -143 l24 -36 -19 -28 c-32 -45 -40 -105 -41 -293 0 -165 1 -179 20
-198 20 -20 33 -20 1390 -20 1357 0 1370 0 1390 20 19 19 20 33 20 198 -1 188
-9 248 -41 293 l-19 28 24 36 c38 56 41 88 14 143 -16 33 -34 52 -60 65 -35
17 -36 19 -26 48 10 29 7 109 -6 139 -4 10 5 21 31 35 20 11 45 32 56 47 25
34 27 101 4 145 -10 19 -13 34 -7 38 5 3 14 23 20 43 12 45 -1 98 -30 129
l-20 22 28 52 c26 50 27 61 30 217 2 90 1 174 -2 187 -5 18 -69 63 -261 182
l-254 158 34 35 c19 19 38 47 44 63 6 15 21 31 34 36 38 15 89 63 103 98 19
45 17 121 -4 162 -9 19 -34 48 -55 65 -35 28 -46 31 -106 31 -56 0 -74 -4
-108 -27 -23 -15 -49 -44 -61 -68 -14 -29 -33 -48 -61 -62 -47 -23 -79 -62
-95 -118 l-11 -38 -225 141 c-124 77 -247 149 -275 158 -58 21 -143 23 -201 5z
m146 -87 c27 -6 112 -52 210 -113 91 -57 207 -129 258 -160 50 -31 92 -60 92
-64 0 -3 -43 -49 -95 -103 -52 -53 -95 -103 -95 -112 0 -20 27 -47 48 -47 9 0
65 48 123 106 103 102 107 106 131 93 14 -8 122 -75 241 -149 l217 -135 -590
-3 c-325 -1 -855 -1 -1180 0 l-590 3 363 225 c199 123 441 274 537 334 150 94
230 133 275 135 6 0 30 -4 55 -10z m958 -24 c47 -55 14 -140 -59 -151 -31 -5
-42 -1 -70 24 -26 23 -33 37 -33 67 0 30 7 44 33 67 28 25 39 29 70 24 21 -3
45 -16 59 -31z m-165 -220 c42 -22 44 -26 19 -48 -49 -44 -131 -24 -151 36
-13 38 -7 62 22 94 l20 22 27 -42 c14 -23 43 -51 63 -62z m467 -640 c0 -72 -3
-95 -13 -95 -8 0 -45 20 -83 44 -83 53 -144 71 -225 63 -62 -5 -97 -20 -187
-77 -48 -30 -62 -34 -122 -34 -60 0 -74 4 -122 34 -108 68 -127 75 -218 75
-91 0 -110 -7 -218 -75 -48 -30 -62 -34 -122 -34 -60 0 -74 4 -122 34 -108 68
-127 75 -218 75 -91 0 -110 -7 -218 -75 -48 -30 -62 -34 -122 -34 -60 0 -74 4
-122 34 -91 58 -126 72 -193 77 -79 7 -140 -12 -227 -67 -33 -22 -67 -40 -75
-40 -10 0 -13 22 -13 95 l0 95 1310 0 1310 0 0 -95z m-2281 -86 c24 -5 64 -24
89 -41 132 -91 272 -91 404 0 90 62 186 62 276 0 132 -91 272 -91 404 0 90 62
186 62 276 0 132 -91 272 -91 404 0 90 62 186 62 276 0 25 -17 66 -39 91 -48
25 -10 47 -22 48 -27 2 -6 -12 -24 -32 -42 l-36 -31 -1229 0 -1229 0 -36 31
c-20 18 -34 36 -32 42 1 5 23 17 48 27 25 9 67 31 92 48 39 27 93 48 132 51 6
0 30 -4 54 -10z m-108 -334 l94 -44 -151 -1 c-158 0 -174 4 -174 45 0 34 20
45 81 45 46 0 73 -8 150 -45z m696 -45 l-178 -90 -187 86 c-103 47 -189 88
-191 90 -2 2 162 4 365 4 l369 0 -178 -90z m425 65 c9 -21 8 -28 -7 -45 -16
-17 -31 -20 -114 -20 l-96 0 89 45 c50 25 96 45 103 45 7 0 19 -11 25 -25z
m696 13 c17 -17 15 -44 -4 -62 -13 -14 -55 -16 -307 -16 l-292 0 3 45 4 45
292 0 c214 0 295 -3 304 -12z m560 0 c7 -7 12 -21 12 -33 0 -43 -13 -45 -247
-45 l-223 0 0 45 0 45 223 0 c160 0 226 -3 235 -12z m-1968 -220 l95 -47 -348
0 c-222 -1 -355 3 -368 9 -30 17 -24 69 11 83 8 3 128 5 265 4 l250 -2 95 -47z
m1970 32 c15 -24 11 -59 -7 -68 -10 -5 -36 -12 -57 -15 -101 -16 -155 -91
-156 -215 0 -108 -29 -152 -100 -152 -43 0 -90 47 -90 90 0 38 -19 77 -55 110
-22 21 -37 25 -85 25 -48 0 -63 -4 -85 -25 -47 -43 -55 -71 -55 -180 0 -99 -1
-102 -29 -131 -31 -31 -75 -38 -112 -19 -40 22 -49 61 -49 210 0 178 -17 226
-95 269 -26 14 -85 17 -450 21 l-420 5 95 48 95 47 823 -2 c719 -3 824 -5 832
-18z m-2064 -210 c-40 -44 -44 -61 -20 -84 28 -29 54 -18 128 54 l73 70 118 0
119 0 -37 -38 c-38 -39 -46 -69 -25 -90 25 -25 54 -11 123 58 l69 70 119 0
119 0 -36 -40 c-40 -44 -44 -61 -20 -84 28 -29 54 -18 128 54 66 64 76 70 114
70 86 0 122 -40 122 -135 l0 -55 -735 0 c-548 0 -741 3 -760 12 -28 13 -55 55
-55 85 1 28 25 64 51 79 18 10 79 13 233 14 l208 0 -36 -40z m1980 -68 c-5
-35 -22 -62 -37 -62 -13 0 -11 88 2 112 11 21 12 21 26 2 9 -12 12 -32 9 -52z
m-436 -52 c11 -11 20 -29 20 -40 0 -21 -10 -26 -25 -11 -6 5 -26 13 -44 18
l-35 9 22 22 c27 27 37 27 62 2z m-1360 -140 c11 -11 20 -24 20 -30 0 -5 -9
-19 -20 -30 -19 -19 -33 -20 -359 -20 -295 0 -342 2 -355 16 -9 8 -16 24 -16
34 0 10 7 26 16 34 13 14 60 16 355 16 326 0 340 -1 359 -20z m610 0 c11 -11
20 -24 20 -30 0 -5 -9 -19 -20 -30 -19 -19 -33 -20 -260 -20 l-240 0 0 50 0
50 240 0 c227 0 241 -1 260 -20z m300 -30 l0 -50 -95 0 -95 0 0 50 0 50 95 0
95 0 0 -50z m418 -3 c-2 -11 -13 -26 -25 -35 -23 -14 -23 -14 -23 30 0 25 3
48 7 51 11 12 44 -26 41 -46z m546 37 c9 -8 16 -24 16 -34 0 -42 -24 -50 -158
-50 l-127 1 35 19 c19 10 48 32 64 49 27 28 35 31 92 31 44 0 67 -5 78 -16z
m-429 -34 c3 -6 23 -19 43 -30 l37 -19 -52 -1 c-52 0 -53 0 -53 30 0 30 13 40
25 20z m-439 -162 c26 -15 54 -22 89 -22 35 0 63 7 89 22 36 21 46 22 322 22
305 0 324 -3 358 -52 22 -31 21 -33 -23 -46 -21 -7 -56 -24 -77 -38 -107 -73
-178 -82 -270 -33 -164 87 -154 84 -234 84 -80 0 -70 3 -234 -84 -79 -42 -133
-42 -212 0 -164 87 -154 84 -234 84 -80 0 -70 3 -234 -84 -79 -42 -133 -42
-212 0 -164 87 -154 84 -234 84 -80 0 -72 3 -235 -85 -84 -45 -145 -40 -241
18 -38 23 -85 47 -104 53 -19 7 -36 13 -38 15 -9 7 23 47 51 64 31 19 58 20
834 20 l802 0 37 -22z m-1660 -194 c104 -64 133 -74 214 -74 81 0 110 10 214
74 53 32 68 36 126 36 58 0 73 -4 126 -36 104 -64 133 -74 214 -74 81 0 110
10 214 74 53 32 68 36 126 36 58 0 73 -4 126 -36 104 -64 133 -74 214 -74 81
0 110 10 214 74 53 32 68 36 126 36 58 0 73 -4 126 -36 104 -64 133 -74 214
-74 81 0 110 10 214 74 33 20 63 36 68 36 4 0 8 -54 8 -120 l0 -120 -1310 0
-1310 0 0 120 c0 66 4 120 8 120 5 0 35 -16 68 -36z" />
        <path d="M1512 2518 c-7 -7 -12 -21 -12 -33 0 -12 5 -26 12 -33 7 -7 21 -12
33 -12 12 0 26 5 33 12 7 7 12 21 12 33 0 12 -5 26 -12 33 -7 7 -21 12 -33 12
-12 0 -26 -5 -33 -12z" />
        <path d="M1142 2378 c-15 -15 -15 -51 0 -66 18 -18 56 -14 68 7 14 27 13 37
-6 55 -18 19 -45 21 -62 4z" />
        <path d="M1796 2374 c-19 -18 -20 -28 -6 -55 20 -37 80 -18 80 26 0 42 -44 59
-74 29z" />
        <path d="M1458 2315 c-9 -21 -8 -28 7 -45 10 -11 26 -20 35 -20 9 0 25 9 35
20 27 30 7 70 -35 70 -23 0 -33 -6 -42 -25z" />
        <path d="M906 2234 c-30 -30 -13 -74 29 -74 27 0 45 18 45 45 0 42 -44 59 -74
29z" />
        <path d="M1282 2238 c-7 -7 -12 -21 -12 -33 0 -12 5 -26 12 -33 27 -27 78 -7
78 29 0 39 -52 63 -78 37z" />
        <path d="M1702 2188 c-7 -7 -12 -21 -12 -33 0 -12 5 -26 12 -33 7 -7 21 -12
33 -12 12 0 26 5 33 12 7 7 12 21 12 33 0 12 -5 26 -12 33 -7 7 -21 12 -33 12
-12 0 -26 -5 -33 -12z" />
        <path d="M2172 2188 c-17 -17 -15 -53 3 -68 38 -31 96 27 65 65 -15 18 -51 20
-68 3z" />
        <path d="M760 1855 c-17 -20 -5 -62 20 -70 42 -13 71 24 54 69 -8 20 -57 21
-74 1z" />
        <path d="M1460 1849 c-14 -26 11 -69 40 -69 11 0 27 11 35 24 23 34 5 66 -35
66 -19 0 -33 -7 -40 -21z" />
        <path d="M2120 1855 c-17 -20 -5 -62 20 -70 44 -14 80 41 48 73 -17 17 -53 15
-68 -3z" />
        <path d="M1460 349 c-9 -16 -8 -26 5 -45 20 -31 50 -31 70 0 23 34 5 66 -35
66 -19 0 -33 -7 -40 -21z" />
        <path d="M765 314 c-34 -35 6 -91 53 -73 29 11 31 63 3 79 -27 14 -37 13 -56
-6z" />
        <path d="M2126 314 c-22 -22 -20 -50 5 -68 22 -15 48 -11 61 8 14 21 8 55 -11
66 -27 14 -37 13 -55 -6z" />
    </g>
</svg>