<svg xmlns="http://www.w3.org/2000/svg" width="256" height="256" viewBox="0 0 256 256" version="1.1"><path d="M 105.597 4.607 C 54.577 13.820, 13.470 55.225, 4.548 106.385 C 2.564 117.762, 2.564 138.238, 4.548 149.615 C 13.538 201.168, 54.832 242.462, 106.385 251.452 C 117.762 253.436, 138.238 253.436, 149.615 251.452 C 201.168 242.462, 242.462 201.168, 251.452 149.615 C 253.436 138.238, 253.436 117.762, 251.452 106.385 C 242.462 54.832, 201.168 13.538, 149.615 4.548 C 138.593 2.626, 116.402 2.655, 105.597 4.607 M 134.870 45.565 C 124.280 48.826, 115.843 57.382, 112.403 68.349 C 111.325 71.785, 110.613 78.910, 110.264 89.750 L 109.740 106 96.870 106 L 84 106 84 120.500 L 84 135 97 135 L 110 135 110 173.500 L 110 212 125.500 212 L 141 212 141 173.500 L 141 135 154 135 C 163.708 135, 167.012 134.684, 167.047 133.750 C 167.072 133.063, 167.899 126.537, 168.883 119.250 L 170.673 106 155.837 106 L 141 106 141 93.468 C 141 73.050, 142.867 71, 161.468 71 L 172 71 172 58.117 C 172 45.601, 171.936 45.216, 169.750 44.630 C 165.231 43.419, 139.609 44.106, 134.870 45.565" stroke="none" fill="#fffcfc" fill-rule="evenodd"/><path d="" stroke="none" fill="#fcfcfc" fill-rule="evenodd"/></svg>