<svg xmlns="http://www.w3.org/2000/svg" width="256" height="256" viewBox="0 0 256 256" version="1.1"><path d="M 105.597 4.607 C 54.577 13.820, 13.470 55.225, 4.548 106.385 C 2.564 117.762, 2.564 138.238, 4.548 149.615 C 13.538 201.168, 54.832 242.462, 106.385 251.452 C 117.762 253.436, 138.238 253.436, 149.615 251.452 C 201.168 242.462, 242.462 201.168, 251.452 149.615 C 253.436 138.238, 253.436 117.762, 251.452 106.385 C 242.462 54.832, 201.168 13.538, 149.615 4.548 C 138.593 2.626, 116.402 2.655, 105.597 4.607 M 83.100 54.048 C 73.826 56.477, 68.734 59.439, 62.645 65.949 C 52.270 77.040, 51.035 83.641, 51.035 128 C 51.035 172.359, 52.270 178.960, 62.645 190.051 C 68.822 196.655, 73.837 199.529, 83.496 201.999 C 90.623 203.822, 94.587 204, 128 204 C 161.413 204, 165.377 203.822, 172.504 201.999 C 182.163 199.529, 187.178 196.655, 193.355 190.051 C 203.730 178.960, 204.965 172.359, 204.965 128 C 204.965 83.641, 203.730 77.040, 193.355 65.949 C 187.178 59.345, 182.163 56.471, 172.504 54.001 C 165.346 52.170, 161.521 52.005, 127.590 52.055 C 94.219 52.105, 89.758 52.304, 83.100 54.048 M 96.398 65.960 C 88.013 66.497, 85.293 67.108, 80.398 69.553 C 73.473 73.013, 68.773 78.659, 66.530 86.211 C 64.508 93.020, 63.555 127.802, 64.748 151.219 C 65.601 167.957, 65.814 169.255, 68.586 174.676 C 72.065 181.477, 77.878 186.292, 85.258 188.484 C 92.010 190.489, 134.794 191.564, 155.211 190.241 C 168.381 189.387, 170.529 188.984, 175.711 186.394 C 182.525 182.987, 187.242 177.292, 189.474 169.774 C 191.717 162.223, 191.717 93.777, 189.474 86.226 C 187.241 78.705, 182.526 73.013, 175.705 69.603 C 170.769 67.136, 168.175 66.590, 158.205 65.917 C 144.612 65.001, 111.023 65.024, 96.398 65.960 M 163.455 82.455 C 160.455 85.454, 160.323 88.870, 163.073 92.365 C 166.423 96.624, 172.972 95.889, 175.516 90.969 C 179.538 83.192, 169.677 76.232, 163.455 82.455 M 116.286 89.394 C 105.872 92.788, 95.925 101.658, 91.180 111.782 C 88.805 116.848, 88.500 118.699, 88.500 128.021 C 88.500 137.859, 88.710 138.968, 91.734 145.110 C 95.681 153.128, 103.726 161.045, 111.747 164.804 C 116.853 167.197, 118.684 167.500, 128.021 167.500 C 137.859 167.500, 138.968 167.290, 145.110 164.266 C 153.128 160.319, 161.045 152.274, 164.804 144.253 C 167.197 139.147, 167.500 137.316, 167.500 127.979 C 167.500 118.141, 167.290 117.032, 164.266 110.890 C 160.303 102.839, 152.233 94.918, 144.253 91.243 C 137.300 88.042, 123.279 87.115, 116.286 89.394 M 122.500 101.928 C 116.804 103.483, 114.090 104.923, 110.149 108.485 C 95.976 121.289, 100.019 144.827, 117.728 152.613 C 122.677 154.789, 133.323 154.789, 138.272 152.613 C 148.171 148.261, 154.358 138.762, 154.304 128 C 154.266 120.412, 152.415 115.572, 147.448 110.074 C 141.498 103.488, 130.246 99.814, 122.500 101.928" stroke="none" fill="#fffcfc" fill-rule="evenodd"/><path d="" stroke="none" fill="#fcfcfc" fill-rule="evenodd"/></svg>