<svg xmlns="http://www.w3.org/2000/svg" width="256" height="256" viewBox="0 0 256 256" version="1.1"><path d="M 105.597 4.607 C 54.577 13.820, 13.470 55.225, 4.548 106.385 C 2.564 117.762, 2.564 138.238, 4.548 149.615 C 13.538 201.168, 54.832 242.462, 106.385 251.452 C 117.762 253.436, 138.238 253.436, 149.615 251.452 C 201.168 242.462, 242.462 201.168, 251.452 149.615 C 253.436 138.238, 253.436 117.762, 251.452 106.385 C 242.462 54.832, 201.168 13.538, 149.615 4.548 C 138.593 2.626, 116.402 2.655, 105.597 4.607 M 110.021 51.068 C 82.973 58.149, 62.270 78.024, 53.843 105 C 51.884 111.271, 51.503 114.631, 51.519 125.500 C 51.541 140.255, 52.959 146.992, 58.571 159 L 62.077 166.500 55.041 186.817 C 48.456 205.831, 48.149 207.091, 50.253 206.471 C 51.489 206.107, 61.089 203.091, 71.587 199.769 L 90.674 193.729 99.063 196.964 C 110.260 201.282, 118.696 202.962, 129.292 202.983 C 159.829 203.043, 187.132 186.268, 200.009 159.533 C 205.885 147.333, 208 138.250, 208 125.213 C 208 89.874, 184.427 59.932, 149.590 51.023 C 138.860 48.279, 120.596 48.300, 110.021 51.068 M 122.340 60.112 C 103.478 61.871, 84.088 73.614, 73.363 89.773 C 59.699 110.358, 59.229 139.098, 72.224 159.349 L 75.368 164.249 71.272 176.625 C 69.019 183.431, 67.473 188.991, 67.838 188.981 C 68.202 188.970, 74.063 187.190, 80.862 185.025 L 93.224 181.088 99.949 184.474 C 103.647 186.337, 109.559 188.638, 113.087 189.588 C 121.721 191.915, 138.311 191.906, 146.983 189.570 C 168.576 183.755, 185.501 168.293, 193.579 147 C 196.201 140.088, 196.422 138.441, 196.403 126 C 196.384 113.915, 196.102 111.730, 193.718 105.155 C 182.710 74.798, 154.658 57.096, 122.340 60.112 M 94.836 94.175 C 89.895 99.464, 88.552 102.890, 88.627 110 C 88.746 121.188, 95.834 133.110, 110.519 146.825 C 120.934 156.551, 139.897 166.014, 148.932 165.994 C 157.523 165.976, 165.881 159.868, 167.980 152.075 C 168.921 148.580, 168.890 147.478, 167.826 146.480 C 166.125 144.886, 150.700 138, 148.830 138 C 148.049 138, 145.695 140.250, 143.598 143 C 141.501 145.750, 139 148, 138.041 148 C 135.786 148, 127.782 143.736, 121.796 139.347 C 116.770 135.661, 108 124.807, 108 122.272 C 108 121.431, 109.575 118.999, 111.500 116.868 C 113.425 114.738, 115 112.286, 115 111.421 C 115 109.274, 107.871 92.680, 106.556 91.765 C 105.975 91.361, 103.768 91.024, 101.651 91.015 C 98.606 91.003, 97.183 91.663, 94.836 94.175" stroke="none" fill="#fffcfc" fill-rule="evenodd"/><path d="" stroke="none" fill="#fcfcfc" fill-rule="evenodd"/></svg>