<svg xmlns="http://www.w3.org/2000/svg" width="1080" height="1080" viewBox="0 0 1080 1080" version="1.1"><path d="M 543.515 161.975 C 542.789 163.150, 542.790 203.123, 543.516 203.849 C 543.758 204.091, 546.172 204.502, 548.880 204.762 C 553.177 205.175, 553.952 204.958, 554.971 203.055 C 555.612 201.856, 556.059 199.665, 555.963 198.187 C 555.867 196.709, 555.836 193.898, 555.894 191.940 L 556 188.381 563.637 189.199 C 572.471 190.146, 574 189.437, 574 184.397 C 574 180.596, 573.786 180.502, 562.824 179.480 L 556.149 178.857 556.716 175.178 C 557.028 173.155, 557.332 171.459, 557.392 171.409 C 557.451 171.359, 562.189 171.711, 567.919 172.190 C 574.467 172.738, 578.695 172.705, 579.299 172.101 C 579.827 171.573, 580.314 169.450, 580.380 167.385 C 580.493 163.860, 580.285 163.585, 577 162.927 C 570.198 161.565, 544.225 160.826, 543.515 161.975 M 507 162.516 C 506.175 162.696, 501.225 163.397, 496 164.073 C 482.534 165.818, 481.635 166.239, 482.422 170.438 C 482.779 172.339, 482.625 174.114, 482.074 174.454 C 481.531 174.790, 478.792 173.865, 475.987 172.398 C 471.695 170.154, 470.045 169.819, 465.560 170.282 C 459.076 170.951, 449.496 175.313, 447.364 178.567 C 444.505 182.930, 444.075 187.453, 446.092 191.956 C 448.630 197.627, 453 199.394, 463 198.795 C 467.125 198.548, 471.288 198.526, 472.250 198.746 C 474.981 199.371, 474.341 202.624, 471.250 203.834 C 466.901 205.536, 465.759 205.571, 461.416 204.138 C 457.690 202.908, 456.968 202.976, 453.166 204.915 C 450.875 206.084, 449 207.482, 449 208.020 C 449 210.871, 445.410 207.818, 436.041 197 C 428.963 188.827, 424.988 185.003, 423.575 185.010 C 421.186 185.021, 411.540 189.317, 410.643 190.769 C 410.075 191.688, 413.432 227.857, 414.543 232.793 C 415.284 236.082, 417.195 236.408, 421.355 233.953 C 424.752 231.949, 425 231.473, 425 226.948 C 425 222.136, 425.041 222.076, 429.627 220.047 C 435.527 217.437, 435.602 217.443, 439.565 220.923 L 442.895 223.847 447.438 222.122 C 449.937 221.174, 452.903 219.408, 454.029 218.199 C 455.614 216.498, 457.214 216, 461.096 216 C 479.040 216, 492.870 201.732, 484.832 191.514 C 481.542 187.332, 477.074 185.928, 467.563 186.090 C 462.956 186.169, 458.714 185.941, 458.137 185.585 C 456.227 184.404, 458.150 182.035, 461.941 180.899 C 464.982 179.988, 466.242 180.074, 468.729 181.360 C 471.628 182.859, 472.027 182.811, 476.641 180.409 C 481.568 177.844, 490.629 175, 493.876 175 C 495.370 175, 495.916 176.725, 497.286 185.759 C 498.184 191.677, 499.424 198.877, 500.042 201.759 L 501.166 207 505.833 206.985 C 513.480 206.960, 513.399 207.177, 511.590 191.496 C 509.199 170.776, 508.960 172, 515.393 172 C 521.361 172, 521.901 171.427, 521.049 166 L 520.500 162.500 514.500 162.345 C 511.200 162.260, 507.825 162.337, 507 162.516 M 591.491 167.802 C 583.491 171.562, 579.018 179.193, 579.006 189.101 C 578.990 202.024, 587.366 210.956, 599.500 210.956 C 609.741 210.956, 617.323 204.577, 620.639 193.171 C 622.603 186.413, 621.971 181.066, 618.608 175.984 C 613.182 167.784, 599.995 163.805, 591.491 167.802 M 596.065 178.935 C 591.851 183.149, 590.573 195.573, 594 199 C 596.540 201.540, 601.172 201.572, 603.440 199.066 C 607.857 194.186, 609.528 181.693, 606.171 178.655 C 603.688 176.408, 598.447 176.553, 596.065 178.935 M 635.491 180.865 C 630.450 183.155, 625.425 188.807, 624.060 193.723 C 623.483 195.800, 623.009 200.449, 623.006 204.054 C 622.998 212.626, 626.495 218.609, 633.491 221.996 C 645.493 227.806, 658.139 222.648, 664.133 209.500 C 666.330 204.680, 666.547 195.958, 664.565 192.125 C 662.163 187.481, 655.487 182.222, 649.878 180.556 C 643.162 178.562, 640.432 178.621, 635.491 180.865 M 640.710 191.768 C 638.009 194.752, 635.045 202.299, 635.022 206.250 C 634.986 212.423, 639.918 215.720, 645.067 212.964 C 647.377 211.728, 651.575 203.781, 652.488 198.918 C 652.994 196.220, 652.661 194.839, 650.997 192.723 C 648.444 189.477, 643.222 188.992, 640.710 191.768 M 668.026 213.480 C 657.073 234.836, 656.677 231.901, 671.520 239.426 C 679.134 243.287, 681.440 244, 686.310 244 C 694.739 244, 700.738 240.415, 706.347 232.027 C 708.392 228.969, 708.560 219.269, 706.648 214.718 C 705.904 212.948, 703.316 209.687, 700.898 207.470 C 696.054 203.032, 682.132 194.997, 679.297 195.004 C 677.976 195.008, 674.991 199.901, 668.026 213.480 M 388.500 201.787 C 374.853 209.950, 366 216.125, 366 217.479 C 366 218.826, 385.718 247.078, 388.955 250.369 C 390.749 252.193, 390.906 252.161, 395.397 249.071 C 397.929 247.329, 400 245.355, 400 244.684 C 400 244.013, 398.947 241.897, 397.661 239.982 C 396.374 238.067, 394.549 235.303, 393.604 233.839 L 391.887 231.179 398.937 227.339 C 404.080 224.539, 405.988 222.952, 405.993 221.473 C 406.001 219.127, 403.366 215, 401.862 215 C 401.298 215, 398.149 216.575, 394.865 218.500 C 387.867 222.601, 386.641 222.754, 384.561 219.784 C 383.103 217.702, 383.175 217.434, 385.755 215.351 C 387.265 214.131, 391.528 211.641, 395.229 209.817 C 399.781 207.573, 401.965 205.918, 401.979 204.700 C 402.009 202.130, 399.174 197, 397.724 197.001 C 397.051 197.001, 392.900 199.155, 388.500 201.787 M 422 203.679 C 422 204.818, 422.273 207.116, 422.607 208.786 C 423.178 211.642, 423.385 211.762, 426.107 210.813 C 427.698 210.258, 429 209.487, 429 209.098 C 429 208.710, 427.425 206.866, 425.500 205 C 422.385 201.981, 422 201.836, 422 203.679 M 680.250 218.460 C 677.362 223.622, 675 228.304, 675 228.866 C 675 230.641, 679.323 233, 682.575 233 C 686.300 233, 691.974 229.421, 693.721 225.970 C 694.408 224.611, 694.977 221.753, 694.985 219.618 C 694.997 216.452, 694.341 215.115, 691.429 212.368 C 689.465 210.516, 687.327 209.017, 686.679 209.037 C 686.030 209.058, 683.138 213.298, 680.250 218.460 M 349.933 243.322 C 312.274 267.280, 281.025 295.400, 253.053 330.500 C 235.677 352.304, 214.975 386.824, 204.161 412.028 C 197.530 427.480, 188.827 451.911, 189.541 453.066 C 190.454 454.543, 201.586 454.204, 202.867 452.660 C 203.478 451.924, 205.124 447.812, 206.524 443.524 C 209.446 434.573, 219.076 411.838, 225.068 399.745 C 236.233 377.213, 256.524 347.065, 275.040 325.500 C 294.262 303.112, 323.186 277.655, 347.378 261.834 C 354.038 257.478, 359.767 253.146, 360.107 252.207 C 360.448 251.268, 360.508 247.912, 360.240 244.750 C 359.642 237.693, 358.935 237.595, 349.933 243.322 M 725.654 242.751 C 725.399 243.163, 725.436 246.568, 725.737 250.316 L 726.284 257.131 733.892 262.235 C 765.531 283.463, 798.355 315.165, 822.690 348 C 843.605 376.220, 863.509 413.406, 872.469 441 C 876.573 453.641, 876.894 454, 884.054 454 C 888.024 454, 890.230 453.564, 890.556 452.716 C 890.827 452.010, 887.734 442.666, 883.684 431.953 C 859.016 366.709, 817.386 309.601, 763.504 267.091 C 758.557 263.188, 752.032 258.311, 749.004 256.254 C 745.977 254.197, 740.170 250.148, 736.101 247.257 C 728.943 242.171, 726.629 241.173, 725.654 242.751 M 507.500 272.020 C 463.048 275.864, 420.022 298.281, 396.061 330.079 C 384.055 346.013, 374.226 366.468, 369.974 384.371 C 368.888 388.944, 367.119 400.643, 366.042 410.370 C 364.966 420.096, 363.851 428.432, 363.566 428.894 C 363.280 429.355, 356.512 435.306, 348.524 442.116 C 340.536 448.927, 334 455.054, 334 455.731 C 334 456.408, 340.735 463.833, 348.967 472.231 L 363.933 487.500 363.967 502.568 C 363.990 513.204, 364.458 519.178, 365.555 522.874 C 368.091 531.414, 375.392 537.419, 390.668 543.530 L 397.313 546.189 540.906 546.692 C 626.073 546.990, 690.420 546.810, 699.049 546.251 C 711.789 545.424, 714.276 544.968, 719.049 542.584 C 726.417 538.904, 730.315 534.918, 733.510 527.798 C 736.509 521.115, 736.908 516.452, 735.717 502 L 734.934 492.500 750.908 480.174 C 759.694 473.394, 767.394 467.230, 768.021 466.475 C 768.928 465.382, 766.040 461.740, 753.830 448.573 L 738.500 432.044 738.483 414.772 L 738.465 397.500 733.367 382.500 C 726.753 363.043, 721.123 351.161, 711.589 336.539 C 696.314 313.113, 680.908 300.806, 651 288.142 C 634.537 281.170, 615.576 276.562, 588.500 272.953 C 578.104 271.567, 520.417 270.902, 507.500 272.020 M 526 289.482 C 498.256 292.040, 470.152 297.514, 459.282 302.478 C 448.123 307.573, 431.485 320.795, 413.753 338.658 C 406.743 345.721, 400.393 352.400, 399.642 353.500 C 397.796 356.207, 391.430 372.467, 387.898 383.500 C 385.598 390.680, 384.791 395.735, 383.903 408.500 C 381.723 439.851, 383.249 441.984, 409.226 443.913 C 430.798 445.514, 470.531 445.247, 543.014 443.012 C 578.481 441.919, 622.125 440.574, 640 440.024 C 713.890 437.750, 709.102 438.050, 713.152 435.448 C 715.507 433.935, 717.754 431.159, 719.481 427.628 C 722.151 422.171, 722.156 422.120, 721.039 410.950 C 718.969 390.243, 716.267 380.828, 706.564 360.500 C 700.587 347.977, 700.013 347.175, 690.930 338.634 C 676.648 325.206, 655.752 308.919, 647.294 304.623 C 643.732 302.813, 616.286 295.632, 597 291.464 C 585.957 289.077, 581.935 288.726, 562.500 288.453 C 549.409 288.270, 534.628 288.686, 526 289.482 M 723.124 448.039 C 720.717 450.215, 717.117 452.427, 715.124 452.955 C 711.881 453.813, 630.327 456.356, 517 459.132 C 494.725 459.677, 458.880 459.983, 437.345 459.812 C 415.809 459.640, 398.397 459.836, 398.651 460.246 C 398.905 460.656, 397.923 462.094, 396.468 463.442 C 394.757 465.028, 393.631 467.331, 393.277 469.971 C 392.976 472.214, 392.312 474.307, 391.800 474.624 C 390.628 475.348, 393.845 479, 395.655 479 C 397.614 479, 397.303 480.774, 395.250 481.311 C 394.087 481.615, 394.355 481.807, 396.050 481.884 C 397.452 481.948, 399.162 482.563, 399.850 483.250 C 400.664 484.064, 403.957 484.467, 409.300 484.405 C 418.799 484.294, 440.669 478.973, 451.920 474.035 C 461.994 469.614, 470.060 468.030, 482.500 468.030 C 495.464 468.030, 503.448 469.699, 512.754 474.353 C 521.848 478.902, 533.777 482.574, 543.660 483.866 C 553.799 485.192, 565.895 483.482, 574.593 479.494 C 592.552 471.260, 606.856 468, 625.024 468 C 638.292 468, 648.496 470.445, 658.779 476.088 C 673.055 483.924, 678.023 485.333, 691.500 485.368 C 706.049 485.406, 708.910 484.439, 724 474.386 C 729.775 470.538, 736.638 466.159, 739.250 464.653 C 743.734 462.069, 744.959 460.593, 743.250 459.833 C 742.837 459.650, 739.386 456.012, 735.581 451.750 C 731.776 447.488, 728.401 444.018, 728.081 444.041 C 727.762 444.064, 725.531 445.862, 723.124 448.039 M 380 514.545 C 380 518.353, 380.477 519.252, 384.171 522.414 C 386.465 524.378, 390.852 526.985, 393.921 528.209 L 399.500 530.433 553 530.467 C 675.010 530.493, 707.366 530.237, 710.723 529.219 C 716.472 527.474, 719.901 522.863, 720.241 516.418 C 720.450 512.457, 720.208 511.578, 719 511.900 C 718.175 512.120, 679.700 512.479, 633.500 512.698 C 587.300 512.916, 533.745 513.411, 514.488 513.798 C 495.231 514.184, 471.606 514.218, 461.988 513.872 C 431.517 512.779, 388.659 510.977, 384.250 510.605 L 380 510.246 380 514.545 M 658.169 586.750 C 657.674 587.712, 656.962 590.975, 656.589 594 C 656.215 597.025, 655.020 603.292, 653.932 607.927 C 652.706 613.150, 652.309 616.709, 652.888 617.288 C 653.402 617.802, 662.061 618.243, 672.132 618.269 L 690.441 618.315 693.516 602.653 C 695.557 592.259, 696.256 586.656, 695.595 585.995 C 695.010 585.410, 687.291 585, 676.835 585 C 660.926 585, 658.976 585.183, 658.169 586.750 M 938.415 585.765 C 937.494 586.389, 931.943 614.022, 931.986 617.772 C 931.997 618.765, 936.206 618.984, 951.250 618.772 L 970.500 618.500 973.322 603.158 C 974.874 594.721, 975.901 587.183, 975.603 586.408 C 975.166 585.269, 971.661 585.003, 957.281 585.015 C 947.502 585.024, 939.012 585.361, 938.415 585.765 M 118.550 588.250 C 118.338 588.938, 117.255 594.675, 116.145 601 C 115.034 607.325, 112.729 619.700, 111.023 628.500 C 109.317 637.300, 106.825 650.800, 105.486 658.500 C 100.337 688.111, 94.984 716.827, 93.091 725 C 92.518 727.475, 92.038 730.962, 92.024 732.750 L 92 736 107.893 736 C 121.108 736, 123.883 735.747, 124.362 734.498 C 124.680 733.672, 126.530 723.743, 128.475 712.434 C 133.902 680.885, 134.719 676.408, 137.410 663.500 C 140.610 648.153, 144.991 622.677, 145.030 619.189 C 145.074 615.308, 146.598 618.330, 147.456 624 C 147.830 626.475, 149.891 637.950, 152.035 649.500 C 155.589 668.639, 163.910 717.738, 165.545 729.218 C 165.915 731.813, 166.796 734.416, 167.503 735.003 C 168.290 735.656, 172.991 735.959, 179.624 735.785 L 190.460 735.500 194.292 728.500 C 196.400 724.650, 201.533 714.975, 205.698 707 C 209.864 699.025, 213.596 692.050, 213.993 691.500 C 214.389 690.950, 218.570 683.075, 223.283 674 C 227.996 664.925, 233.924 653.675, 236.456 649 C 238.988 644.325, 243.525 635.663, 246.538 629.750 C 249.551 623.837, 252.297 619, 252.639 619 C 253.322 619, 252.866 621.904, 250.518 632.500 C 249.665 636.350, 246.277 654.350, 242.989 672.500 C 239.701 690.650, 235.883 711.483, 234.505 718.796 C 233.127 726.108, 232 732.971, 232 734.046 C 232 735.918, 232.818 736, 251.441 736 C 262.134 736, 271.086 735.663, 271.336 735.250 C 271.902 734.314, 278.741 697.412, 283.521 669.500 C 286.455 652.366, 291.902 623.524, 297.966 593.015 C 298.604 589.807, 298.522 588.317, 297.679 587.780 C 296.154 586.811, 239.841 586.796, 238.429 587.765 C 237.198 588.610, 229.811 602.363, 200.579 658.231 C 193.731 671.318, 191 675.648, 191 673.419 C 191 670, 178.134 589.026, 177.403 587.843 C 177.116 587.379, 163.844 587, 147.910 587 C 125.605 587, 118.848 587.288, 118.550 588.250 M 592.829 593.944 C 585.310 594.250, 578.956 594.725, 578.709 595 C 578.462 595.275, 577.244 599.100, 576.004 603.500 C 574.763 607.900, 572.890 614.522, 571.842 618.215 L 569.936 624.931 559.775 625.215 L 549.613 625.500 547.763 635.500 C 546.745 641, 545.820 646.850, 545.706 648.500 L 545.500 651.500 553 651.692 C 557.125 651.798, 561.318 651.910, 562.317 651.942 C 563.667 651.985, 563.972 652.511, 563.505 653.986 C 562.316 657.731, 555.887 685.500, 553.944 695.285 C 549.859 715.852, 552.290 725.928, 563.033 732.962 C 570.785 738.037, 578.254 739.345, 595.884 738.712 C 607.191 738.306, 611.642 737.787, 612.677 736.751 C 613.452 735.977, 614.977 731.103, 616.067 725.921 C 617.157 720.740, 618.326 715.224, 618.666 713.664 L 619.284 710.828 610.392 711.522 C 599.801 712.348, 593.740 711.058, 591.395 707.480 C 589.898 705.196, 590.064 703.541, 593.974 681.769 C 596.273 668.971, 598.556 656.925, 599.048 655 L 599.942 651.500 614.207 651.500 L 628.472 651.500 630.649 640.500 C 634.059 623.278, 635.298 625, 619.500 625 C 609.374 625, 605.997 624.688, 605.987 623.750 C 605.980 623.063, 607.193 616.281, 608.682 608.680 C 611.006 596.818, 611.185 594.730, 609.945 593.945 C 609.150 593.442, 608.050 593.111, 607.500 593.210 C 606.950 593.308, 600.348 593.639, 592.829 593.944 M 357 622.692 C 334.130 626.527, 318.240 638.671, 308.187 660 C 303.916 669.061, 302.082 677.053, 302.035 686.803 C 301.894 716.205, 321.941 737.034, 352 738.716 C 369.667 739.705, 383.084 735.872, 396 726.146 C 404.163 719.999, 415.596 704.178, 413.422 702.035 C 411.836 700.471, 383.776 696.941, 382.348 698.126 C 381.656 698.700, 379.971 701.079, 378.604 703.413 C 377.236 705.747, 374.178 708.960, 371.808 710.552 C 368.194 712.981, 366.292 713.501, 360 713.780 C 351.012 714.180, 347.025 712.444, 342.604 706.208 C 340.200 702.818, 339.625 700.839, 339.223 694.573 L 338.738 687.023 378.619 686.762 L 418.500 686.500 418.463 672.500 C 418.428 659.378, 418.245 658.067, 415.541 651.587 C 409.491 637.088, 394.787 625.631, 378.923 623.057 C 372.633 622.037, 361.966 621.859, 357 622.692 M 469.500 623.008 C 452.303 626.155, 439.750 635.258, 434.860 648.126 C 432.085 655.429, 432.329 667.016, 435.395 673.602 C 440.943 685.517, 449.463 690.319, 472.500 694.514 C 483.666 696.548, 491.119 698.636, 493.544 700.408 C 494.784 701.315, 495.400 703.017, 495.400 705.534 C 495.400 708.570, 494.762 709.835, 492.118 712.043 C 490.313 713.550, 487.466 715.057, 485.793 715.391 C 481.829 716.184, 469.120 716.174, 465.123 715.375 C 461.774 714.705, 453 707.635, 453 705.606 C 453 704.933, 452.430 703.602, 451.733 702.649 C 450.574 701.065, 449.439 701.008, 438.483 701.991 C 421.161 703.545, 420 703.791, 420 705.911 C 420 709.270, 427.024 721.814, 430.723 725.062 C 435.974 729.672, 449.236 735.651, 458.208 737.452 C 467.115 739.241, 480.657 739.446, 489.977 737.934 C 504.460 735.584, 520.311 725.042, 526.076 713.925 C 529.170 707.957, 530.024 692.956, 527.624 686.711 C 523.137 675.036, 509.955 667.761, 487.103 664.347 C 481.385 663.493, 475.085 662.235, 473.103 661.553 C 466.093 659.139, 465.171 652.183, 471.261 647.649 C 475.026 644.846, 484.925 644.255, 492.285 646.394 C 497.962 648.045, 500.713 650.473, 504.249 656.954 C 505.835 659.860, 506.302 660.092, 509.249 659.434 C 511.037 659.035, 516.974 657.954, 522.441 657.030 C 527.909 656.107, 532.559 654.824, 532.773 654.180 C 533.765 651.204, 529.557 642.635, 524.332 636.992 C 515.374 627.316, 504.450 623.244, 485.500 622.516 C 479.450 622.283, 472.250 622.505, 469.500 623.008 M 748.849 623.444 C 733.835 626.734, 722.962 633.466, 713.411 645.382 C 702.491 659.008, 698.640 670.132, 698.791 687.615 C 698.936 704.311, 702.743 714.009, 713.118 724.115 C 719.556 730.386, 726.821 734.408, 736.507 737.066 C 743.323 738.936, 746.162 739.177, 755.993 738.723 C 773.441 737.918, 785.818 732.754, 797.216 721.523 C 803.705 715.128, 810.919 703.511, 809.358 701.967 C 808.319 700.941, 781 697.090, 779.292 697.730 C 778.627 697.978, 776.946 700.122, 775.557 702.493 C 768.591 714.380, 752.504 718.198, 742.271 710.393 C 737.544 706.788, 735.749 702.588, 735.378 694.261 L 735.054 687 774.468 687 C 798.246 687, 814.115 686.624, 814.468 686.051 C 814.791 685.529, 815.332 681.509, 815.670 677.117 C 817.312 655.829, 806.698 636.346, 788.643 627.506 C 777.917 622.255, 761.787 620.608, 748.849 623.444 M 898.810 624.398 C 892.217 626.173, 887.605 629.552, 882.296 636.500 L 877.710 642.500 878.400 638 C 878.780 635.525, 879.354 631.577, 879.678 629.226 L 880.265 624.953 862.416 625.226 L 844.567 625.500 841.437 642.500 C 839.716 651.850, 836.637 668.950, 834.595 680.500 C 832.552 692.050, 829.558 708.110, 827.941 716.189 C 826.323 724.268, 825 732.031, 825 733.439 L 825 736 843.921 736 L 862.841 736 863.387 733.250 C 863.688 731.737, 864.885 725.100, 866.048 718.500 C 869.684 697.868, 873.746 681.393, 876.678 675.388 C 882.349 663.773, 892.088 657, 903.119 657 C 905.739 657, 908.113 656.626, 908.395 656.170 C 909.008 655.178, 912 630.058, 912 625.905 C 912 623.143, 911.790 623.003, 907.750 623.067 C 905.413 623.105, 901.389 623.703, 898.810 624.398 M 930.596 624.845 C 930.331 625.273, 929.411 630.096, 928.551 635.562 C 927.691 641.028, 924.995 655.625, 922.560 668 C 920.125 680.375, 917.166 695.900, 915.985 702.500 C 914.804 709.100, 913.199 717.811, 912.419 721.857 C 911.638 725.903, 911 730.741, 911 732.607 L 911 736 929.525 736 C 947.828 736, 948.059 735.973, 948.863 733.750 C 949.310 732.513, 952.275 716.650, 955.451 698.500 C 958.628 680.350, 962.941 656.786, 965.037 646.134 C 967.134 635.483, 968.649 626.258, 968.406 625.634 C 967.892 624.321, 931.391 623.558, 930.596 624.845 M 650.517 626.250 C 650.286 626.938, 646.889 645.500, 642.968 667.500 C 639.047 689.500, 634.750 712.555, 633.420 718.733 C 632.089 724.911, 631 731.324, 631 732.983 L 631 736 649.955 736 L 668.909 736 669.445 732.750 C 669.740 730.962, 671.579 720.950, 673.533 710.500 C 680.022 675.793, 687.798 633.558, 688.492 629.250 L 689.176 625 670.057 625 C 655.652 625, 650.834 625.308, 650.517 626.250 M 361.500 644.906 C 353.595 646.907, 347.786 652.344, 344.114 661.179 C 342.584 664.863, 342.384 666.210, 343.315 666.567 C 343.998 666.829, 353.544 666.921, 364.528 666.772 L 384.500 666.500 384.794 660.963 C 385.131 654.601, 382.663 649.845, 377.497 646.900 C 373.933 644.869, 365.700 643.843, 361.500 644.906 M 758 644.926 C 753.479 645.852, 749.062 648.206, 746.316 651.155 C 744.016 653.625, 739.026 663.606, 739.010 665.770 C 739.002 666.765, 743.494 666.982, 759.750 666.770 L 780.500 666.500 780.801 661.298 C 780.992 657.984, 780.528 654.989, 779.523 653.044 C 776.313 646.838, 766.583 643.168, 758 644.926 M 426.445 818.019 C 421.754 819.458, 418.764 823.240, 418.642 827.889 C 418.499 833.322, 421.757 836.646, 429.270 838.735 C 433.517 839.915, 434.999 840.774, 434.781 841.925 C 434.291 844.517, 428.546 844.502, 426.124 841.903 C 424.367 840.016, 423.584 839.830, 420.789 840.632 C 416.564 841.843, 416.229 843.956, 419.711 847.442 C 423.177 850.913, 425.949 852, 431.333 852 C 444.086 852, 449.133 836.626, 438.105 831.373 C 436.122 830.429, 433.150 829.377, 431.500 829.037 C 429.820 828.690, 428.500 827.776, 428.500 826.959 C 428.500 824.805, 432.866 824.569, 435.113 826.602 C 437.627 828.877, 442.352 827.486, 442.805 824.337 C 443.467 819.742, 433.445 815.871, 426.445 818.019 M 481.029 818.466 C 480.132 819.546, 479.917 821.657, 480.337 825.266 C 481.320 833.724, 479.821 833.773, 475.688 825.421 L 471.963 817.892 467.231 818.196 L 462.500 818.500 462.225 834.107 C 461.924 851.205, 462.424 852.863, 467.487 851.593 C 469.926 850.981, 470.001 850.704, 470.050 842.231 L 470.100 833.500 474.140 841.500 C 476.363 845.900, 478.901 850.063, 479.782 850.750 C 481.943 852.438, 486.713 852.334, 487.700 850.578 C 488.140 849.797, 488.275 842.034, 488 833.328 L 487.500 817.500 484.914 817.199 C 483.466 817.031, 481.757 817.588, 481.029 818.466 M 503.275 817.935 C 495.610 819.841, 492 825.124, 492 834.433 C 492 841.818, 493.950 846.214, 498.640 849.401 C 506.883 855.003, 518.936 850.587, 519.345 841.816 C 519.486 838.790, 519.225 838.473, 516.358 838.195 C 513.814 837.948, 512.800 838.472, 511.039 840.945 C 508.607 844.361, 505.056 844.977, 502.884 842.360 C 501.205 840.338, 501.198 830.367, 502.873 827.237 C 504.791 823.653, 508.690 824.282, 510.701 828.500 C 512.118 831.470, 512.877 832, 515.717 832 C 519.847 832, 520.714 830.163, 518.871 825.320 C 516.502 819.097, 510.340 816.179, 503.275 817.935 M 532.500 817.939 L 523.500 818.500 523.385 834 C 523.321 842.677, 523.697 850.040, 524.239 850.728 C 525.317 852.093, 544.792 852.365, 546.928 851.044 C 547.620 850.617, 548.008 848.819, 547.824 846.895 L 547.500 843.500 539.686 843.207 C 532.317 842.930, 531.890 842.790, 532.186 840.748 C 532.470 838.792, 533.019 838.611, 537.891 838.873 C 543.628 839.182, 544.957 838.327, 544.985 834.309 C 545.005 831.374, 543.498 830.615, 537.526 830.552 C 533.184 830.507, 532.500 830.228, 532.500 828.500 C 532.500 826.722, 533.333 826.444, 540 826 L 547.500 825.500 547.824 822.105 C 548.174 818.446, 546.823 816.916, 543.500 817.204 C 542.400 817.300, 537.450 817.630, 532.500 817.939 M 569.035 818.306 C 565.397 819.559, 560.716 825.289, 561.215 827.878 C 561.530 829.512, 566.205 831.129, 567.732 830.132 C 568.265 829.784, 569.234 828.487, 569.885 827.250 C 571.253 824.654, 575.739 824.157, 576.639 826.502 C 577.879 829.732, 575.799 832.687, 568.553 837.993 C 563.210 841.906, 560.875 844.291, 560.438 846.284 C 559.353 851.223, 561.027 851.974, 572.857 851.854 C 578.710 851.795, 584.288 851.338, 585.250 850.838 C 586.405 850.238, 587 848.752, 587 846.465 L 587 843 580.250 842.996 L 573.500 842.993 576.500 841.163 C 578.150 840.157, 580.963 837.668, 582.750 835.632 C 588.269 829.346, 586.737 821.459, 579.401 818.394 C 575.430 816.735, 573.642 816.720, 569.035 818.306 M 597.034 818.702 C 584.259 825.329, 587.975 852, 601.672 852 C 609.121 852, 614.260 845.984, 615.339 836 C 616.717 823.245, 606.638 813.720, 597.034 818.702 M 626.256 817.931 C 622.093 818.976, 620.566 820.287, 618.540 824.557 C 616.504 828.847, 617.148 830, 621.580 830 C 624.303 830, 625.286 829.466, 626.182 827.500 C 627.506 824.594, 632.389 823.966, 633.389 826.572 C 634.463 829.369, 632.953 831.133, 620.018 842.197 C 617.462 844.383, 616.925 845.518, 617.183 848.197 L 617.500 851.500 629.929 851.270 C 643.183 851.025, 644.238 850.623, 643.759 846 C 643.517 843.660, 643.094 843.481, 637.169 843.200 L 630.837 842.900 634.883 839.970 C 639.785 836.419, 641.907 833.347, 642.659 828.715 C 643.144 825.727, 642.736 824.687, 639.863 821.574 C 636.202 817.608, 632.012 816.486, 626.256 817.931 M 655.500 817.733 C 650.995 818.861, 648.026 822.103, 646.411 827.657 C 643.694 837.006, 646.133 846.281, 652.299 850.040 C 658.416 853.771, 666.145 851.432, 669.635 844.794 C 671.833 840.614, 671.864 829.916, 669.693 824.772 C 667.245 818.969, 661.648 816.193, 655.500 817.733 M 448.667 818.667 C 448.300 819.033, 448 826.450, 448 835.148 L 448 850.962 450.421 851.570 C 456.449 853.082, 456.475 853.015, 456.774 834.737 L 457.048 818 453.191 818 C 451.069 818, 449.033 818.300, 448.667 818.667 M 599.424 826.338 C 599.141 827.075, 599.043 831.237, 599.205 835.588 C 599.484 843.068, 599.630 843.518, 601.887 843.837 C 603.200 844.023, 604.655 843.573, 605.122 842.837 C 606.433 840.769, 606.178 827.578, 604.800 826.200 C 603.194 824.594, 600.062 824.675, 599.424 826.338 M 655.656 825.750 C 654.517 827.601, 653.965 835.866, 654.738 839.500 C 655.495 843.057, 655.912 843.500, 658.504 843.500 C 661.017 843.500, 661.527 843.018, 662.210 840 C 662.957 836.701, 662.476 829.404, 661.313 826.372 C 660.760 824.933, 656.451 824.459, 655.656 825.750 M 301.034 827.459 C 299.826 828.914, 300.466 834.989, 301.829 835.010 C 302.198 835.016, 326.086 835.036, 354.914 835.054 C 410.517 835.088, 408.949 835.222, 408.985 830.450 C 409.018 825.979, 409.281 826, 354.422 826 C 309.913 826, 302.067 826.214, 301.034 827.459 M 678.050 827.440 C 676.014 829.893, 677.159 834.291, 680 834.934 C 681.375 835.245, 705.450 835.275, 733.500 835 L 784.500 834.500 784.824 831.105 C 785.019 829.063, 784.621 827.375, 783.824 826.870 C 783.096 826.408, 759.268 826.024, 730.872 826.015 C 687.152 826.002, 679.062 826.220, 678.050 827.440" stroke="none" fill="#fffcfc" fill-rule="evenodd"/><path d="" stroke="none" fill="#fcfcfc" fill-rule="evenodd"/></svg>